<?xml version="1.0" encoding="UTF-8" standalone="no"?>
<!-- Created with Inkscape (http://www.inkscape.org/) -->

<svg
   xmlns:dc="http://purl.org/dc/elements/1.1/"
   xmlns:cc="http://creativecommons.org/ns#"
   xmlns:rdf="http://www.w3.org/1999/02/22-rdf-syntax-ns#"
   xmlns:svg="http://www.w3.org/2000/svg"
   xmlns="http://www.w3.org/2000/svg"
   xmlns:xlink="http://www.w3.org/1999/xlink"
   xmlns:sodipodi="http://sodipodi.sourceforge.net/DTD/sodipodi-0.dtd"
   xmlns:inkscape="http://www.inkscape.org/namespaces/inkscape"
   width="240"
   height="240"
   id="svg4313"
   version="1.1"
   inkscape:version="0.48.3.1 r9886"
   sodipodi:docname="max-sync.svg">
  <defs
     id="defs4315">
    <inkscape:path-effect
       effect="bend_path"
       id="path-effect5156"
       is_visible="true"
       bendpath="m 442.2834,481.89612 431.40735,0"
       prop_scale="1"
       scale_y_rel="false"
       vertical="false" />
    <inkscape:path-effect
       effect="bend_path"
       id="path-effect5154"
       is_visible="true"
       bendpath="m 136.62019,423.02969 c 52.17657,-93.29271 134.40911,-46.91248 169.73284,-2.34172"
       prop_scale="1"
       scale_y_rel="false"
       vertical="false"
       bendpath-nodetypes="cc" />
    <inkscape:path-effect
       effect="bend_path"
       id="path-effect5152"
       is_visible="true"
       bendpath="m 442.2834,481.89612 431.40735,0"
       prop_scale="1"
       scale_y_rel="false"
       vertical="false" />
    <linearGradient
       inkscape:collect="always"
       xlink:href="#linearGradient3533"
       id="linearGradient4244"
       gradientUnits="userSpaceOnUse"
       gradientTransform="matrix(7.0071842,0,0,-7.0071842,434.3048,344.70369)"
       x1="15.372947"
       y1="5.0471625"
       x2="15.372947"
       y2="22.599676" />
    <linearGradient
       id="linearGradient3533">
      <stop
         offset="0"
         style="stop-color:#93b9dd;stop-opacity:1"
         id="stop3535" />
      <stop
         offset="1"
         style="stop-color:#6396cd;stop-opacity:1"
         id="stop3545" />
    </linearGradient>
    <linearGradient
       inkscape:collect="always"
       xlink:href="#linearGradient3689"
       id="linearGradient4241"
       gradientUnits="userSpaceOnUse"
       gradientTransform="matrix(-8.7589803,0,0,-8.7589803,484.86298,583.75293)"
       x1="15.372947"
       y1="5.0471625"
       x2="15.372947"
       y2="22.599676" />
    <linearGradient
       id="linearGradient3689">
      <stop
         id="stop3691"
         style="stop-color:#d7e866;stop-opacity:1"
         offset="0" />
      <stop
         id="stop3693"
         style="stop-color:#8cab2a;stop-opacity:1"
         offset="1" />
    </linearGradient>
    <linearGradient
       y2="22.599676"
       x2="15.372947"
       y1="5.0471625"
       x1="15.372947"
       gradientTransform="matrix(8.7589803,0,0,8.7589803,63.708461,200.97148)"
       gradientUnits="userSpaceOnUse"
       id="linearGradient4358"
       xlink:href="#linearGradient3533"
       inkscape:collect="always" />
    <path
       sodipodi:type="arc"
       style="fill:none;stroke:#000000;stroke-width:5;stroke-miterlimit:4;stroke-opacity:1;stroke-dasharray:none"
       id="path3010-7"
       sodipodi:cx="352.29657"
       sodipodi:cy="806.96942"
       sodipodi:rx="128.77048"
       sodipodi:ry="128.77048"
       d="m 481.06705,806.96942 a 128.77048,128.77048 0 1 1 -257.54096,0 128.77048,128.77048 0 1 1 257.54096,0 z"
       transform="matrix(-0.43767183,0.89913479,0.89913479,0.43767183,-191.67693,137.01954)" />
    <path
       sodipodi:type="arc"
       style="fill:none;stroke:#000000;stroke-width:5;stroke-miterlimit:4;stroke-opacity:1;stroke-dasharray:none"
       id="path3818-9"
       sodipodi:cx="221.08896"
       sodipodi:cy="373.25974"
       sodipodi:rx="168.70975"
       sodipodi:ry="168.70975"
       d="m 389.79871,373.25974 a 168.70975,168.70975 0 1 1 -337.419499,0 168.70975,168.70975 0 1 1 337.419499,0 z"
       transform="matrix(-0.62643174,0.90372497,0.90372497,0.62643174,123.17247,-49.419324)" />
    <path
       sodipodi:type="arc"
       style="fill:none;stroke:#000000;stroke-width:5;stroke-miterlimit:4;stroke-opacity:1;stroke-dasharray:none"
       id="path3863-7"
       sodipodi:cx="260.67789"
       sodipodi:cy="365.34195"
       sodipodi:rx="174.1913"
       sodipodi:ry="174.1913"
       d="m 434.86919,365.34195 a 174.1913,174.1913 0 1 1 -348.382602,0 174.1913,174.1913 0 1 1 348.382602,0 z"
       transform="matrix(-0.85827013,0.54205285,0.5131982,0.90652651,306.24967,-108.74556)" />
    <linearGradient
       inkscape:collect="always"
       xlink:href="#linearGradient3533"
       id="linearGradient3998"
       gradientUnits="userSpaceOnUse"
       gradientTransform="matrix(8.7589803,0,0,8.7589803,63.708461,200.97148)"
       x1="15.372947"
       y1="5.0471625"
       x2="15.372947"
       y2="22.599676" />
    <linearGradient
       inkscape:collect="always"
       xlink:href="#linearGradient3533"
       id="linearGradient4017"
       gradientUnits="userSpaceOnUse"
       gradientTransform="matrix(7.0071842,0,0,-7.0071842,488.15297,570.55713)"
       x1="15.372947"
       y1="5.0471625"
       x2="15.372947"
       y2="22.599676" />
    <linearGradient
       inkscape:collect="always"
       xlink:href="#linearGradient3689"
       id="linearGradient3026"
       gradientUnits="userSpaceOnUse"
       gradientTransform="matrix(-8.7589803,0,0,-8.7589803,484.86298,583.75293)"
       x1="15.372947"
       y1="5.0471625"
       x2="15.372947"
       y2="22.599676" />
    <linearGradient
       inkscape:collect="always"
       xlink:href="#linearGradient3533"
       id="linearGradient3028"
       gradientUnits="userSpaceOnUse"
       gradientTransform="matrix(7.0071842,0,0,-7.0071842,488.15297,570.55713)"
       x1="15.372947"
       y1="5.0471625"
       x2="15.372947"
       y2="22.599676" />
    <linearGradient
       inkscape:collect="always"
       xlink:href="#linearGradient3689"
       id="linearGradient3018"
       gradientUnits="userSpaceOnUse"
       gradientTransform="matrix(-8.7589803,0,0,-8.7589803,484.86298,583.75293)"
       x1="15.372947"
       y1="5.0471625"
       x2="15.372947"
       y2="22.599676" />
    <linearGradient
       inkscape:collect="always"
       xlink:href="#linearGradient3533"
       id="linearGradient3020"
       gradientUnits="userSpaceOnUse"
       gradientTransform="matrix(7.0071842,0,0,-7.0071842,488.15297,570.55713)"
       x1="15.372947"
       y1="5.0471625"
       x2="15.372947"
       y2="22.599676" />
    <linearGradient
       inkscape:collect="always"
       xlink:href="#linearGradient3533"
       id="linearGradient3027"
       gradientUnits="userSpaceOnUse"
       gradientTransform="matrix(5.7970908,0,0,5.7970908,76.979482,327.00233)"
       x1="15.372947"
       y1="5.0471625"
       x2="15.372947"
       y2="22.599676" />
    <linearGradient
       inkscape:collect="always"
       xlink:href="#linearGradient3689"
       id="linearGradient3030"
       gradientUnits="userSpaceOnUse"
       gradientTransform="matrix(-5.7970908,0,0,-5.7970908,355.71865,580.34447)"
       x1="15.372947"
       y1="5.0471625"
       x2="15.372947"
       y2="22.599676" />
  </defs>
  <sodipodi:namedview
     id="base"
     pagecolor="#ffffff"
     bordercolor="#666666"
     borderopacity="1.0"
     inkscape:pageopacity="0.0"
     inkscape:pageshadow="2"
     inkscape:zoom="1.7195494"
     inkscape:cx="141.8054"
     inkscape:cy="41.244508"
     inkscape:document-units="px"
     inkscape:current-layer="layer1"
     showgrid="false"
     inkscape:window-width="1871"
     inkscape:window-height="1176"
     inkscape:window-x="49"
     inkscape:window-y="24"
     inkscape:window-maximized="1"
     fit-margin-top="0"
     fit-margin-left="0"
     fit-margin-right="0"
     fit-margin-bottom="0" />
  <metadata
     id="metadata4318">
    <rdf:RDF>
      <cc:Work
         rdf:about="">
        <dc:format>image/svg+xml</dc:format>
        <dc:type
           rdf:resource="http://purl.org/dc/dcmitype/StillImage" />
        <dc:title />
      </cc:Work>
    </rdf:RDF>
  </metadata>
  <g
     inkscape:label="Layer 1"
     inkscape:groupmode="layer"
     id="layer1"
     transform="translate(-97.036653,-333.66977)">
    <g
       id="g3902"
       transform="matrix(1.25,0,0,-1.25,-546.48275,914.16789)">
      <g
         id="g4019"
         transform="translate(-3.774058,284.94138)" />
    </g>
    <path
       inkscape:connector-curvature="0"
       id="path3675"
       d="m 215.77959,570.59304 c 59.82176,-2.42279 107.45952,-48.68575 114.84198,-107.24909 l -64.53929,0 c -6.42476,23.85112 -29.46741,42.41981 -54.85839,42.14034 -14.35906,-0.15797 -28.22097,-4.85763 -38.53376,-14.80606 l 26.76482,-24.6768 -97.37838,0 0,96.04965 25.6259,-25.6259 c 22.52482,22.13467 48.56922,33.80196 81.81302,34.16786 2.11341,0.0231 4.17866,0.0845 6.2641,0 z"
       style="fill:url(#linearGradient3030);fill-opacity:1;stroke:#42770c;stroke-width:6.07428551;stroke-linecap:butt;stroke-linejoin:round;stroke-miterlimit:4;stroke-opacity:1;stroke-dasharray:none" />
    <path
       style="fill:url(#linearGradient3027);fill-opacity:1;stroke:#387ab8;stroke-width:6.07428503;stroke-linecap:butt;stroke-linejoin:round;stroke-miterlimit:4;stroke-opacity:1;stroke-dasharray:none"
       d="m 216.91853,336.7538 c -59.82176,2.4228 -107.45951,48.68575 -114.84196,107.24911 l 64.53929,0 c 6.42473,-23.85116 29.4674,-42.41985 54.85839,-42.14036 14.35905,0.15798 28.22096,4.85764 38.53375,14.80606 l -26.76482,24.67679 97.37839,0 0,-96.04964 -25.62589,25.62588 C 282.47084,348.787 256.42644,337.11971 223.18263,336.7538 c -2.11338,-0.0233 -4.17867,-0.0845 -6.2641,0 z"
       id="path3372"
       inkscape:connector-curvature="0"
       inkscape:export-filename="/home/folfre/Software/test.png"
       inkscape:export-xdpi="17.109068"
       inkscape:export-ydpi="17.109068" />
    <path
       style="fill:#656263;fill-opacity:1;fill-rule:nonzero;stroke:none"
       d="m 281.26875,365.9814 c -0.0991,-0.0609 -0.19468,-0.11042 -0.29671,-0.16559 -0.20477,-0.10937 -0.42095,-0.20882 -0.63563,-0.28965 -0.42937,-0.16156 -0.8646,-0.2631 -1.29921,-0.28372 -1.73899,-0.0828 -2.65397,1.11073 -2.08295,2.62133 1.21196,3.20611 2.2834,6.41145 3.23032,9.60388 1.95906,6.54699 3.4472,13.07709 4.47659,19.52663 -6.61621,0.32418 -13.05578,1.09213 -19.26666,2.26223 -1.70534,0.32955 -3.39233,0.69178 -5.05725,1.08691 -0.68235,0.16146 -1.361,0.32846 -2.03569,0.50099 -0.66701,-16.23046 -4.09419,-33.23309 -12.36264,-49.75151 -0.59042,-1.17941 -2.27167,-2.09588 -3.96381,-2.22312 -0.0263,-0.003 -0.05,-0.007 -0.0749,-0.01 -0.012,-0.001 -0.0217,0.002 -0.0314,0.002 -0.46797,-0.0416 -0.92395,-0.0186 -1.3437,0.0609 -0.3221,0.061 -0.61927,0.15547 -0.88403,0.28914 -0.0881,0.0445 -0.16872,0.0936 -0.24885,0.14626 -3.18726,2.09537 -6.23101,4.30899 -9.11062,6.63991 -10.4218,8.4158 -18.56751,18.49258 -23.27229,29.21255 -0.46449,-1.15156 -0.94925,-2.29787 -1.45456,-3.43843 -4.79348,-10.85774 -11.51897,-21.15066 -19.92043,-30.4666 -0.005,-0.005 -5e-4,-0.0121 -0.005,-0.0167 -0.41812,-0.59558 -1.34094,-0.9708 -2.57107,-0.92127 -2.10199,0.0847 -4.28099,1.40912 -4.79209,2.85989 -1.4906,4.57815 -2.59127,9.16228 -3.31433,13.69933 -1.81512,11.57394 -1.17379,22.70016 1.09107,33.10152 -5.64268,-2.23495 -11.69047,-3.9316 -17.97145,-5.10835 -9.02093,-1.68879 -18.50646,-2.34016 -28.20539,-2.16586 -1.47828,0.0599 -3.14633,1.58899 -3.66209,3.37744 -0.27178,0.94331 -0.16423,1.76174 0.2038,2.30998 0.0495,0.10153 0.10751,0.19343 0.1741,0.28214 8.7367,12.59948 18.55787,24.13892 28.9665,34.81188 0.937,0.91066 2.48562,0.7307 3.46127,-0.36894 0.14082,-0.15867 0.26063,-0.32469 0.3623,-0.50102 0.1513,-0.26167 0.26168,-0.53726 0.32738,-0.81886 0.0165,-0.0703 0.0303,-0.14518 0.0414,-0.21599 0.0555,-0.35367 0.0445,-0.70765 -0.0344,-1.04265 -0.0159,-0.067 -0.0309,-0.13445 -0.0522,-0.19958 -0.10608,-0.32574 -0.27856,-0.62735 -0.52227,-0.87819 -8.72156,-9.46045 -16.90195,-19.59946 -24.2219,-30.54138 10.62195,-0.0596 20.96072,0.90758 30.66656,3.19636 4.41827,1.05069 8.69246,2.37698 12.75545,3.98606 0.42579,0.15926 0.8623,0.18979 1.27402,0.11494 0.10288,-0.0187 0.20768,-0.0428 0.30641,-0.0745 0.0988,-0.0317 0.18931,-0.0691 0.28258,-0.11335 0.0933,-0.0441 0.18546,-0.095 0.27202,-0.15114 0.0868,-0.0558 0.16981,-0.12354 0.24907,-0.19033 0.0209,-0.0179 0.0409,-0.0335 0.061,-0.0523 0.0456,-0.0331 0.0921,-0.0669 0.13513,-0.10289 0.63099,-0.53579 0.94923,-1.39641 0.76758,-2.28504 -1.90261,-8.50508 -2.65466,-17.49103 -1.77241,-26.79686 0.52861,-5.56763 1.65658,-11.23672 3.40931,-16.89796 9.20363,9.72177 16.50145,20.65075 21.5696,32.26568 0.26308,0.63858 0.739,1.09773 1.27508,1.32477 0.0536,0.0226 0.10811,0.0398 0.16298,0.0579 0.10957,0.036 0.21395,0.0639 0.32684,0.0803 0.14199,0.0204 0.28686,0.0236 0.43102,0.0104 0,0 0,0 0,0 0.0279,-0.003 0.0559,-0.006 0.0838,-0.0105 0.0774,-0.0114 0.15838,-0.0317 0.23576,-0.0525 0.005,-0.001 0.0109,-7.2e-4 0.016,-0.002 0.0189,-0.002 0.0367,-0.005 0.0557,-0.008 0.0882,-0.0122 0.17513,-0.0285 0.26065,-0.0539 0.25687,-0.0735 0.50441,-0.19981 0.72216,-0.37529 0.2903,-0.23409 0.53655,-0.5544 0.69826,-0.94828 3.93955,-9.59406 10.72945,-18.68643 19.48686,-26.50548 3.85856,-3.44851 8.07697,-6.65539 12.59247,-9.61775 8.01817,15.84974 11.37494,32.21963 12.03316,47.92449 0.0374,0.89453 0.57597,1.69679 1.34261,2.15847 0.0294,0.0177 0.0609,0.0279 0.0912,0.0441 0.0106,0.009 0.0188,0.0209 0.0292,0.0297 0.0594,0.0435 0.12265,0.0847 0.18518,0.1232 0.0791,0.0479 0.155,0.0932 0.2384,0.13328 0.0835,0.0399 0.17063,0.0711 0.25725,0.10316 0.17334,0.0642 0.35738,0.11855 0.54005,0.14838 0.0913,0.0149 0.17806,0.0212 0.27059,0.0269 0.27777,0.0173 0.55531,-0.004 0.83135,-0.077 1.38227,-0.36309 2.78195,-0.70261 4.19671,-1.01872 7.70816,-1.66087 15.80099,-2.67871 24.16926,-2.96619 1.1912,9.874 1.29849,19.51359 0.36658,28.685 -0.01,0.0947 -0.0118,0.18729 -0.011,0.28118 8.3e-4,0.0938 0.005,0.19182 0.0155,0.2845 0.0323,0.27808 0.1081,0.53862 0.22071,0.79353 0.0375,0.085 0.0768,0.17632 0.12224,0.25754 0.091,0.16217 0.19975,0.30753 0.31968,0.45043 0.38087,0.45449 0.89965,0.80038 1.49609,0.94688 1.34647,0.33167 2.60046,-0.46508 2.76917,-1.83521 1.1684,-9.54465 1.2255,-19.61516 0.12224,-29.95474 9.65597,0.0329 19.63865,1.03669 29.7869,3.14015 1.56144,0.32298 2.58086,-0.7685 2.23994,-2.47616 -0.17089,-0.85382 -0.65156,-1.69347 -1.29204,-2.35594 -0.0806,-0.0822 -0.1664,-0.17075 -0.25052,-0.24816 -0.33853,-0.3076 -0.71705,-0.56202 -1.10367,-0.74972 -0.19333,-0.0938 -0.37562,-0.16445 -0.57335,-0.22103 -0.0989,-0.0284 -0.20443,-0.0482 -0.30327,-0.0663 -9.95386,-1.8143 -19.73092,-2.60829 -29.18554,-2.49843 -1.21034,-8.35187 -3.1707,-16.84753 -5.90631,-25.35501 -0.34458,-1.08528 -0.70371,-2.17177 -1.07797,-3.25901 -0.2978,-0.86606 -1.0192,-1.67984 -1.9057,-2.23369 2.2e-4,-5.7e-4 4.4e-4,-0.001 6.5e-4,-0.002 z"
       id="path24"
       inkscape:connector-curvature="0"
       inkscape:transform-center-y="125.30538"
       inkscape:transform-center-x="-1.8085589"
       inkscape:path-effect="#path-effect5154"
       inkscape:original-d="m 254.79285,382.37979 c -0.0831,0.002 -0.15974,0.0117 -0.24241,0.0199 -0.1654,0.0176 -0.33388,0.0491 -0.49446,0.095 -0.32113,0.0919 -0.62332,0.23552 -0.89571,0.44601 -1.09001,0.84195 -1.22347,2.33069 -0.29471,3.31765 l 18.10794,19.24246 -15.53946,17.04554 -1.37174,1.50268 -26.12371,-40.2786 c -0.62178,-0.95861 -1.87804,-1.3658 -3.00097,-1.05025 -0.0176,0.004 -0.0338,0.006 -0.0504,0.01 -0.008,0.002 -0.0137,0.008 -0.0201,0.01 -0.31171,0.0807 -0.60479,0.21833 -0.86581,0.40001 -0.2003,0.1394 -0.37932,0.30406 -0.53139,0.49835 -0.0506,0.0647 -0.0956,0.13197 -0.13979,0.20249 l -24.24634,38.73191 -11.21318,-37.75605 c -0.002,-0.006 0.002,-0.0117 -1.6e-4,-0.0176 -0.14312,-0.69276 -0.63185,-1.32236 -1.37897,-1.66631 -1.27665,-0.5877 -2.83974,-0.12454 -3.48832,1.03233 l -21.01663,39.35005 -21.66516,-38.99142 c -0.66804,-1.14783 -2.23934,-1.588 -3.50578,-0.98257 -0.66788,0.31954 -1.11258,0.8705 -1.29103,1.4838 -0.0407,0.0982 -0.0722,0.19794 -0.0983,0.30295 l -12.00972,42.95877 c -0.31896,1.26434 0.54925,2.52687 1.94488,2.81629 0.2014,0.0418 0.39915,0.0614 0.59687,0.0598 0.29363,-0.002 0.57934,-0.0471 0.84788,-0.13432 0.0671,-0.0217 0.13666,-0.0481 0.20151,-0.0747 0.32378,-0.13314 0.61443,-0.32449 0.85425,-0.56478 0.0479,-0.0481 0.0966,-0.0958 0.14019,-0.14762 0.21816,-0.25894 0.3819,-0.56265 0.46724,-0.9009 l 10.36267,-37.06695 20.7616,37.36756 c 0.23391,0.40171 0.57534,0.71361 0.97836,0.92725 0.10069,0.0534 0.20728,0.10382 0.3146,0.14429 0.10734,0.0405 0.21206,0.0712 0.32431,0.0983 0.11222,0.0272 0.22863,0.0483 0.34418,0.0616 0.11555,0.0137 0.23665,0.0156 0.35393,0.0156 0.0311,-2.4e-4 0.0598,7e-4 0.0909,-7.1e-4 0.0637,0.004 0.12865,0.008 0.19219,0.008 0.93805,-0.006 1.8395,-0.47903 2.29337,-1.2894 l 20.13154,-37.67685 10.97358,36.93345 c 0.18242,0.6742 0.6708,1.20738 1.29676,1.51119 0.0626,0.0303 0.12748,0.0553 0.19278,0.0811 0.13041,0.0514 0.2563,0.0938 0.39527,0.12552 0.20848,0.0473 0.42723,0.0702 0.64749,0.0686 0.0987,-7e-4 0.20316,-0.01 0.30307,-0.0205 0.006,-7e-4 0.0137,7.1e-4 0.0203,-1.5e-4 0.024,3.7e-4 0.0467,-3.3e-4 0.0708,-3.7e-4 0.11203,-7.1e-4 0.22301,-0.006 0.33338,-0.0207 0.3311,-0.0414 0.65644,-0.13901 0.94761,-0.29067 0.38819,-0.20234 0.72606,-0.49861 0.96274,-0.87697 l 24.93404,-39.85419 25.62162,39.4945 c 0.48641,0.74988 1.36815,1.16262 2.26404,1.15624 0.0344,-2.5e-4 0.0665,-0.008 0.10089,-0.01 0.0137,0.002 0.027,0.008 0.0405,0.01 0.0735,0.006 0.14898,0.008 0.22244,0.008 0.0925,-7e-4 0.18085,-0.002 0.2728,-0.0117 0.0919,-0.01 0.18222,-0.0293 0.27249,-0.0477 0.18066,-0.0368 0.36482,-0.088 0.53433,-0.15954 0.0847,-0.0358 0.16091,-0.0765 0.24154,-0.12083 0.24213,-0.13295 0.46216,-0.29946 0.65261,-0.50838 l 18.47314,-20.26294 18.81191,19.99764 c 0.0647,0.0688 0.13276,0.1306 0.20381,0.19082 0.071,0.0602 0.14722,0.12064 0.22385,0.17245 0.2301,0.15524 0.47563,0.26535 0.74085,0.34276 0.0884,0.0258 0.1828,0.0543 0.27352,0.0714 0.18125,0.034 0.36112,0.0432 0.54618,0.0418 0.58823,-0.004 1.18056,-0.18828 1.6629,-0.56136 1.08961,-0.84164 1.22315,-2.32082 0.2948,-3.30851 l -19.41373,-20.62532 17.77226,-19.49774 c 0.91112,-1.00042 0.75156,-2.47756 -0.35209,-3.30389 -0.55202,-0.41282 -1.23416,-0.58401 -1.89471,-0.52692 -0.0825,0.008 -0.17088,0.0156 -0.25243,0.0291 -0.32606,0.0569 -0.64223,0.17694 -0.92692,0.34548 -0.14234,0.0843 -0.26706,0.17518 -0.39172,0.28672 -0.0624,0.0557 -0.12337,0.12201 -0.18026,0.18438 l -17.18149,18.8524 -17.51622,-18.6147 c -0.52221,-0.55536 -1.27168,-0.83911 -2.01863,-0.82824 z"
       inkscape:export-filename="/home/folfre/Software/test.png"
       inkscape:export-xdpi="17.109068"
       inkscape:export-ydpi="17.109068" />
    <g
       transform="matrix(0.66130442,-0.02675485,0.02675485,0.66130442,23.343122,201.07036)"
       style="font-size:40px;font-style:normal;font-weight:normal;line-height:125%;letter-spacing:0px;word-spacing:0px;fill:#656263;fill-opacity:1;stroke:none;font-family:Sans"
       id="text3867-3">
      <path
         d="m 189.87109,458.95484 -6.11522,4.67139 c -0.67984,-3.24933 -1.54658,-6.14282 -2.60023,-8.68049 -1.05377,-2.53766 -2.33152,-4.78948 -3.83326,-6.75546 -2.60845,-3.41458 -5.28624,-5.54725 -8.0334,-6.39803 -2.73144,-0.83006 -5.31811,-0.31239 -7.76002,1.55298 -2.04879,1.56505 -3.13453,3.36117 -3.25721,5.38836 -0.0863,2.0321 0.86197,5.01082 2.84468,8.93616 l 2.1169,4.37991 c 2.68279,5.3567 3.74211,10.00377 3.17796,13.94122 -0.52774,3.94229 -2.67478,7.35201 -6.44113,10.22917 -4.49074,3.4304 -9.049,4.52019 -13.67478,3.26937 -4.61003,-1.23019 -9.13611,-4.75284 -13.57826,-10.56796 -1.67571,-2.19364 -3.21373,-4.72181 -4.61406,-7.58454 -1.38454,-2.84206 -2.60223,-5.95902 -3.65306,-9.35091 l 6.45668,-4.93223 c 0.51651,3.63621 1.34531,6.95193 2.48641,9.94718 1.14107,2.99523 2.61269,5.67244 4.41487,8.03162 2.73484,3.58013 5.54887,5.80535 8.44212,6.67568 2.89318,0.87029 5.64354,0.30951 8.25108,-1.68233 2.27636,-1.73894 3.5186,-3.80208 3.72672,-6.18941 0.22385,-2.36666 -0.56068,-5.38849 -2.35361,-9.0655 l -2.17166,-4.38724 c -2.64148,-5.38833 -3.7672,-9.88636 -3.37715,-13.49413 0.38999,-3.60773 2.35438,-6.76323 5.89317,-9.46649 4.09746,-3.13004 8.42449,-4.15789 12.98108,-3.08354 4.57229,1.09509 8.795,4.17769 12.66812,9.24782 1.65982,2.17294 3.15473,4.53743 4.48472,7.09348 1.32985,2.55606 2.5027,5.31403 3.51854,8.27392"
         style="font-size:80px;fill:#656263;fill-opacity:1"
         id="path3033"
         inkscape:connector-curvature="0" />
      <path
         d="m 210.81879,474.98057 7.99132,2.82683 7.2476,28.0045 23.13413,-17.25732 7.99132,2.82683 -29.63133,21.92001 -9.26211,26.18353 -7.47575,-2.64446 9.26211,-26.18353 -9.25729,-35.67639"
         style="font-size:80px;fill:#656263;fill-opacity:1"
         id="path3035"
         inkscape:connector-curvature="0" />
      <path
         d="m 280.03729,491.23066 10.16761,-3.08388 38.90705,39.18317 -14.16088,-46.68878 7.32666,-2.2222 16.9273,55.80973 -10.16761,3.08387 -38.90705,-39.18317 14.16088,46.68878 -7.32666,2.2222 -16.9273,-55.80972"
         style="font-size:80px;fill:#656263;fill-opacity:1"
         id="path3037"
         inkscape:connector-curvature="0" />
      <path
         d="m 377.23623,427.76411 6.6148,5.04697 c -3.57807,0.61117 -6.76984,1.74632 -9.57532,3.40543 -2.78964,1.63855 -5.21124,3.80352 -7.26481,6.49493 -4.04387,5.30018 -5.51475,10.5981 -4.41263,15.89379 1.08147,5.27998 4.68632,10.25783 10.81457,14.93356 6.10757,4.65998 11.86074,6.82214 17.25953,6.48648 5.37808,-0.35142 10.08906,-3.1772 14.13297,-8.47735 2.05353,-2.69144 3.50206,-5.59884 4.34561,-8.72223 0.8593,-3.14401 1.11116,-6.52225 0.75558,-10.13473 l 6.55269,4.99958 c -0.18379,3.33197 -0.8429,6.51414 -1.97733,9.5465 -1.11868,3.01173 -2.72057,5.88402 -4.80568,8.61687 -5.35503,7.01854 -11.7155,10.91147 -19.08146,11.67878 -7.38666,0.75155 -14.79628,-1.70815 -22.22889,-7.3791 -7.45327,-5.68671 -11.78258,-12.18361 -12.98795,-19.49072 -1.226,-7.32282 0.83848,-14.49351 6.19346,-21.51209 2.11675,-2.77422 4.47977,-5.09854 7.08906,-6.97296 2.60443,-1.91078 5.46302,-3.38202 8.5758,-4.41371"
         style="font-size:80px;fill:#656263;fill-opacity:1"
         id="path3039"
         inkscape:connector-curvature="0" />
    </g>
  </g>
</svg>
